<svg width="30" height="31" viewBox="0 0 30 31" fill="none" xmlns="http://www.w3.org/2000/svg">
<path d="M21.8382 0.478027H7.27606C3.26407 0.478027 0 3.78907 0 7.8588V22.7515C0 26.821 3.26407 30.1324 7.27606 30.1324H21.8382C25.8502 30.1324 29.1142 26.8209 29.1142 22.7515V7.85877C29.1142 3.78907 25.8502 0.478057 21.8382 0.478057V0.478027ZM26.4195 22.7515C26.4195 25.3137 24.3644 27.3986 21.8383 27.3986H7.27609C4.74994 27.3986 2.69486 25.3137 2.69486 22.7515V13.1328H8.45139C8.03113 14.0376 7.79476 15.0469 7.79476 16.1112C7.79476 19.9772 10.8951 23.122 14.7061 23.122C18.517 23.122 21.6174 19.9772 21.6174 16.1112C21.6174 15.0469 21.3811 14.0375 20.9608 13.1328H26.4194V22.7515H26.4195ZM11.8371 16.1113C11.8371 14.5067 13.1241 13.2011 14.7061 13.2011C16.2883 13.2011 17.5752 14.5068 17.5752 16.1113C17.5752 17.7162 16.2883 19.0216 14.7061 19.0216C13.1241 19.0216 11.8371 17.7162 11.8371 16.1113ZM26.4195 10.3992H18.7058C17.5757 9.58291 16.196 9.10065 14.7061 9.10065C13.2163 9.10065 11.8364 9.58291 10.7066 10.3992H2.69486V7.8588C2.69486 5.2963 4.74994 3.21165 7.27609 3.21165H21.8383C24.3644 3.21165 26.4195 5.2963 26.4195 7.8588V10.3992H26.4195H26.4195ZM23.4993 4.86955H21.0013C20.5566 4.86955 20.1929 5.23861 20.1929 5.68963V8.22369C20.1929 8.67469 20.5566 9.04377 21.0013 9.04377H23.4993C23.9441 9.04377 24.3078 8.67469 24.3078 8.22369V5.68963C24.3078 5.23861 23.9441 4.86955 23.4993 4.86955Z" fill="#6F6F6F"/>
</svg>
