<svg width="24" height="30" viewBox="0 0 24 30" fill="none" xmlns="http://www.w3.org/2000/svg">
<path d="M9.79885 19.6125C9.03315 23.6959 8.10004 27.6103 5.33273 29.655C4.47969 23.4839 6.5861 18.8504 7.56579 13.9308C5.89609 11.0691 7.76668 5.31321 11.2851 6.73217C15.6159 8.47585 7.53522 17.3662 12.9592 18.4783C18.6234 19.6363 20.935 8.46992 17.4224 4.83874C12.3493 -0.407113 2.65277 4.71568 3.84645 12.2256C4.13614 14.0612 5.99799 14.6173 4.59032 17.1512C1.34263 16.4188 0.373128 13.8092 0.498319 10.3307C0.699207 4.63709 5.51906 0.65303 10.3549 0.0999766C16.4704 -0.598383 22.2102 2.38781 23.0036 8.24603C23.8959 14.8604 20.2436 22.0249 13.7031 21.5089C11.93 21.3681 11.1876 20.4725 9.79885 19.6125Z" fill="#6F6F6F"/>
</svg>
