<svg width="32" height="27" viewBox="0 0 32 27" fill="none" xmlns="http://www.w3.org/2000/svg">
<path d="M31.5178 3.88557C30.6417 5.20257 29.5668 6.32525 28.2932 7.25361C28.3057 7.5026 28.312 7.78401 28.312 8.09785C28.312 9.84164 28.0605 11.5875 27.5573 13.3355C27.0542 15.0836 26.2856 16.7567 25.2517 18.355C24.2177 19.9533 22.9861 21.3693 21.5568 22.6029C20.1275 23.8365 18.4094 24.8201 16.4025 25.5537C14.3956 26.2873 12.2448 26.6542 9.95002 26.6542C6.36862 26.6542 3.0705 25.6771 0.0556641 23.7229C0.590762 23.783 1.10397 23.8131 1.59527 23.8131C4.58724 23.8131 7.25956 22.8818 9.61221 21.0191C8.21718 20.9933 6.96783 20.5593 5.86415 19.7172C4.76048 18.8751 4.00096 17.799 3.58559 16.489C3.99615 16.568 4.40137 16.6075 4.80123 16.6075C5.37681 16.6075 5.94318 16.5317 6.50032 16.3799C5.01157 16.0786 3.77652 15.3293 2.79518 14.1319C1.81387 12.9345 1.32322 11.5525 1.32322 9.9859V9.90517C2.23702 10.4165 3.21174 10.6885 4.24736 10.7211C3.36544 10.1269 2.6662 9.35211 2.14966 8.39663C1.63308 7.44115 1.37479 6.40716 1.37479 5.29464C1.37479 4.12131 1.66573 3.02872 2.24759 2.01687C3.86659 4.02468 5.82833 5.62939 8.13283 6.83099C10.4374 8.03261 12.9097 8.69995 15.5498 8.83302C15.4372 8.35877 15.3808 7.86386 15.3806 7.3483C15.3806 5.54816 16.011 4.0111 17.2717 2.73713C18.5324 1.46316 20.0534 0.826172 21.8347 0.826172C23.6996 0.826172 25.2704 1.51243 26.5472 2.88494C28.0059 2.59293 29.3718 2.06476 30.6448 1.30042C30.1544 2.86026 29.2093 4.06357 27.8097 4.91035C29.0961 4.75586 30.3321 4.41427 31.5177 3.88557H31.5178Z" fill="#6F6F6F"/>
</svg>
