<svg width="49" height="63" viewBox="0 0 49 63" fill="none" xmlns="http://www.w3.org/2000/svg">
<path d="M19.8283 41.005C18.1977 49.5424 16.2106 57.7264 10.3175 62.0013C8.50092 49.0991 12.9866 39.4116 15.0729 29.1258C11.5172 23.1428 15.5007 11.1086 22.9934 14.0753C32.2159 17.7209 15.0078 36.3085 26.5584 38.6335C38.6205 41.0546 43.5433 17.7085 36.063 10.1166C25.2595 -0.851174 4.61042 9.85933 7.15242 25.5608C7.76932 29.3986 11.7342 30.5611 8.73652 35.859C1.82042 34.3276 -0.244184 28.8716 0.022416 21.599C0.450216 9.69503 10.7143 1.36533 21.0125 0.209027C34.0356 -1.25107 46.2589 4.99233 47.9484 17.2404C49.8487 31.0695 42.0708 46.0487 28.1425 44.9699C24.3667 44.6754 22.7857 42.803 19.8283 41.005Z" fill="#8854D3"/>
</svg>
