<svg width="67" height="54" viewBox="0 0 67 54" fill="none" xmlns="http://www.w3.org/2000/svg">
<path d="M67 6.39646C65.1342 9.14999 62.8453 11.4972 60.133 13.4382C60.1598 13.9588 60.1732 14.5471 60.1732 15.2033C60.1732 18.8491 59.6375 22.4994 58.566 26.154C57.4946 29.8087 55.8579 33.3069 53.6561 36.6485C51.4542 39.9902 48.8314 42.9506 45.7876 45.5298C42.7439 48.109 39.0851 50.1655 34.8114 51.6993C30.5376 53.2331 25.9573 54 21.0705 54C13.4437 54 6.42023 51.9571 0 47.8714C1.13951 47.9972 2.2324 48.0601 3.27867 48.0601C9.65021 48.0601 15.341 46.1129 20.3511 42.2186C17.3803 42.1645 14.7198 41.2572 12.3694 39.4965C10.0191 37.7358 8.40168 35.486 7.51713 32.7471C8.39145 32.9124 9.25437 32.995 10.1059 32.995C11.3316 32.995 12.5377 32.8364 13.7242 32.5191C10.5538 31.8891 7.92374 30.3224 5.83392 27.819C3.74419 25.3156 2.69932 22.4262 2.69932 19.1508V18.982C4.6453 20.051 6.721 20.6197 8.92641 20.6879C7.04831 19.4456 5.55926 17.8257 4.45926 15.828C3.35918 13.8303 2.80915 11.6685 2.80915 9.34248C2.80915 6.88933 3.4287 4.60499 4.66781 2.48945C8.11553 6.6873 12.2932 10.0424 17.2007 12.5546C22.1083 15.0669 27.3732 16.4622 32.9955 16.7404C32.7557 15.7488 32.6356 14.7141 32.6351 13.6362C32.6351 9.87252 33.9775 6.65891 36.6623 3.99535C39.347 1.33178 42.5861 0 46.3793 0C50.3508 0 53.696 1.4348 56.4149 4.30439C59.5214 3.69387 62.4301 2.58959 65.141 0.991547C64.0966 4.25278 62.0841 6.76861 59.1035 8.53901C61.8429 8.21602 64.4751 7.50183 66.9999 6.39646H67Z" fill="#8854D3"/>
</svg>
