<svg width="62" height="62" viewBox="0 0 62 62" fill="none" xmlns="http://www.w3.org/2000/svg">
<path d="M46.5055 0H15.4947C6.95099 0 0 6.92259 0 15.4314V46.5684C0 55.0767 6.95099 62 15.4947 62H46.5055C55.0492 62 62 55.0766 62 46.5684V15.4313C62 6.92259 55.0492 6.21316e-05 46.5055 6.21316e-05V0ZM56.2614 46.5683C56.2614 51.9253 51.8851 56.2844 46.5056 56.2844H15.4948C10.1152 56.2844 5.73883 51.9253 5.73883 46.5683V26.4581H17.9976C17.1026 28.3497 16.5993 30.4599 16.5993 32.6852C16.5993 40.7681 23.2017 47.343 31.3173 47.343C39.4328 47.343 46.0353 40.7681 46.0353 32.6852C46.0353 30.4599 45.532 28.3496 44.6369 26.4581H56.2614V46.5683H56.2614ZM25.2075 32.6853C25.2075 29.3306 27.9483 26.6008 31.3174 26.6008C34.6866 26.6008 37.4272 29.3307 37.4272 32.6853C37.4272 36.0408 34.6866 38.7701 31.3174 38.7701C27.9484 38.77 25.2075 36.0408 25.2075 32.6853V32.6853ZM56.2614 20.7428H39.8347C37.4283 19.0361 34.49 18.0278 31.3174 18.0278C28.1448 18.0278 25.2062 19.0361 22.8003 20.7428H5.73883V15.4314C5.73883 10.0738 10.1152 5.71534 15.4948 5.71534H46.5056C51.8851 5.71534 56.2614 10.0738 56.2614 15.4314V20.7428H56.2615H56.2614ZM50.0429 9.18161H44.7233C43.7762 9.18161 43.0017 9.95322 43.0017 10.8962V16.1943C43.0017 17.1372 43.7761 17.9089 44.7233 17.9089H50.0429C50.99 17.9089 51.7645 17.1372 51.7645 16.1943V10.8962C51.7645 9.95322 50.9901 9.18161 50.0429 9.18161Z" fill="#8854D3"/>
</svg>
