<svg width="31" height="31" viewBox="0 0 31 31" fill="none" xmlns="http://www.w3.org/2000/svg">
<path d="M22.8837 0.491943H7.6244C3.42034 0.491943 0 3.89831 0 8.08519V23.4066C0 27.5932 3.42034 31 7.6244 31H22.8837C27.0878 31 30.508 27.5932 30.508 23.4066V8.08516C30.508 3.89831 27.0878 0.491974 22.8837 0.491974V0.491943ZM27.6843 23.4066C27.6843 26.0426 25.5308 28.1875 22.8838 28.1875H7.62443C4.97734 28.1875 2.82388 26.0426 2.82388 23.4066V13.511H8.856C8.41561 14.4418 8.16793 15.4802 8.16793 16.5752C8.16793 20.5525 11.4167 23.7878 15.4102 23.7878C19.4035 23.7878 22.6524 20.5525 22.6524 16.5752C22.6524 15.4802 22.4047 14.4418 21.9643 13.511H27.6842V23.4066H27.6843ZM12.4037 16.5753C12.4037 14.9245 13.7524 13.5813 15.4102 13.5813C17.0681 13.5813 18.4166 14.9245 18.4166 16.5753C18.4166 18.2263 17.0681 19.5694 15.4102 19.5694C13.7524 19.5693 12.4037 18.2263 12.4037 16.5753ZM27.6843 10.6988H19.6013C18.4171 9.85894 16.9713 9.3628 15.4102 9.3628C13.8491 9.3628 12.4031 9.85894 11.2192 10.6988H2.82388V8.08519C2.82388 5.44892 4.97734 3.30426 7.62443 3.30426H22.8838C25.5308 3.30426 27.6843 5.44892 27.6843 8.08519V10.6988H27.6843H27.6843ZM24.6244 5.00989H22.0068C21.5407 5.00989 21.1596 5.38957 21.1596 5.85358V8.46059C21.1596 8.92457 21.5407 9.30428 22.0068 9.30428H24.6244C25.0904 9.30428 25.4715 8.92457 25.4715 8.46059V5.85358C25.4715 5.38957 25.0904 5.00989 24.6244 5.00989Z" fill="#FDFDFD"/>
</svg>
