<svg width="25" height="31" viewBox="0 0 25 31" fill="none" xmlns="http://www.w3.org/2000/svg">
<path d="M10.709 20.1771C9.90661 24.3781 8.92883 28.4052 6.02904 30.5087C5.13515 24.16 7.34241 19.3931 8.36901 14.3318C6.61937 11.3878 8.57951 5.46617 12.2664 6.92598C16.8045 8.71985 8.33697 17.8662 14.0206 19.0102C19.956 20.2016 22.3783 8.71375 18.6975 4.97804C13.3815 -0.418833 3.22077 4.85143 4.4716 12.5776C4.77516 14.466 6.72615 15.0381 5.25108 17.645C1.84791 16.8914 0.831994 14.2067 0.963179 10.6281C1.17368 4.77058 6.22429 0.67183 11.2917 0.102855C17.6999 -0.61561 23.7146 2.45655 24.5459 8.48341C25.481 15.2882 21.6537 22.659 14.8001 22.1281C12.9422 21.9832 12.1642 21.0619 10.709 20.1771Z" fill="#FDFDFD"/>
</svg>
