<svg width="34" height="28" viewBox="0 0 34 28" fill="none" xmlns="http://www.w3.org/2000/svg">
<path d="M33.0484 4.08412C32.1304 5.43903 31.004 6.59404 29.6695 7.54912C29.6826 7.80527 29.6892 8.09478 29.6892 8.41766C29.6892 10.2116 29.4256 12.0078 28.8984 13.8061C28.3712 15.6045 27.5658 17.3258 26.4824 18.9701C25.3989 20.6144 24.1083 22.0711 22.6106 23.3403C21.1128 24.6094 19.3125 25.6213 17.2095 26.3761C15.1066 27.1308 12.8528 27.5082 10.4481 27.5082C6.69526 27.5082 3.23925 26.5029 0.0800781 24.4925C0.640793 24.5544 1.17857 24.5854 1.6934 24.5854C4.82861 24.5854 7.62886 23.6272 10.0941 21.7109C8.63233 21.6843 7.32316 21.2379 6.16665 20.3715C5.01014 19.5051 4.21425 18.3981 3.77899 17.0504C4.20922 17.1317 4.63383 17.1723 5.05284 17.1723C5.65598 17.1723 6.24946 17.0943 6.83327 16.9382C5.27325 16.6282 3.97907 15.8573 2.95075 14.6254C1.92246 13.3936 1.40832 11.9718 1.40832 10.3601V10.277C2.36587 10.803 3.38725 11.0829 4.47245 11.1165C3.54831 10.5052 2.8156 9.70803 2.27432 8.72504C1.73302 7.74206 1.46236 6.67829 1.46236 5.53375C1.46236 4.32665 1.76722 3.2026 2.37695 2.16162C4.07345 4.22723 6.12911 5.87814 8.54394 7.11433C10.9588 8.35054 13.5495 9.0371 16.316 9.17399C16.198 8.68609 16.1389 8.17693 16.1387 7.64653C16.1387 5.79457 16.7992 4.21326 18.1203 2.90262C19.4414 1.59197 21.0352 0.936646 22.9017 0.936646C24.8559 0.936646 26.502 1.64266 27.8399 3.05469C29.3685 2.75427 30.7998 2.21089 32.1337 1.42455C31.6198 3.02929 30.6295 4.26724 29.1628 5.1384C30.5108 4.97946 31.806 4.62804 33.0484 4.08412H33.0484Z" fill="#FDFDFD"/>
</svg>
