<?xml version="1.0" encoding="utf-8"?>
<!-- Generator: Adobe Illustrator 26.3.1, SVG Export Plug-In . SVG Version: 6.00 Build 0)  -->
<svg version="1.1" xmlns="http://www.w3.org/2000/svg" xmlns:xlink="http://www.w3.org/1999/xlink" x="0px" y="0px"
	 viewBox="0 0 682.88 401.62" style="enable-background:new 0 0 682.88 401.62;" xml:space="preserve">
<style type="text/css">
	.st0{display:none;}
	.st1{fill:#8854D3;}
</style>
<g id="Referência" class="st0">
</g>
<g id="Camada_2">
	<path class="st1" d="M117.14,264.28l-0.62,73.64c0,0.42,0.03,0.84,0.01,1.25c-0.62,10.34-2.16,25.91-22.63,32.84
		c-7.45,2.53-15.4,3.13-23.23,2.32c-16.14-1.67-23.6-7.9-25.59-13.79c-2.39-7.05,3.92-17.83,13.43-14.5
		c1.02,0.36,1.98,0.86,2.87,1.45c6.15,4.1,27.5,10.13,32.92-4.96c0.72-2,1-4.13,1.01-6.25c0.01-3.39-0.1-8.56-0.17-11.56
		c-0.02-0.72-0.93-1-1.36-0.43c-3.12,4.08-12.07,12.76-29.5,8.25c-22.06-5.71-31.71-25.59-25.31-68.8c0.55-3.74,3.13-6.99,6.76-8.05
		c3.61-1.06,7.56-0.01,8.7,4.61c0.19,0.77,0.24,1.58,0.22,2.38c-0.32,10.51-2.57,30.64,1.96,38.53c2.8,5.07,8.53,8.13,13.47,8.27
		c0,0,20.49,2.32,22.8-19.47c2.3-21.66,2.88-34.32,15.33-34.7C111.54,255.35,117.14,256.68,117.14,264.28z"/>
	<path class="st1" d="M227.81,262.71c0.64,1.9,0.95,3.89,1.06,5.89c0.35,6.62,0.33,25.09-2.41,42.65c-0.9,5.74-2.95,11.29-6.4,15.97
		c-7.59,10.28-19.45,14.73-34.18,13.33c-17.34-1.65-37.53-22.93-32.6-66.4c1.07-8.53,4.26-15.14,11.2-14.2
		c6.4,0.87,6.14,8.15,6.05,10.81c-0.04,0.95-0.06,1.9-0.05,2.85c0.06,7.83-0.13,36.54,13.07,42.27c9.33,2.93,19.47-0.89,21.73-19.93
		c1.95-16.35-2.37-39.55,13.17-40.59c0.98-0.07,1.97-0.01,2.92,0.25C224.66,256.52,226.63,259.2,227.81,262.71z"/>
	<path class="st1" d="M274.08,266.15c0,0-10.51-0.32-7.52,17.66c1.03,6.17,1.63,12.4,1.99,18.64c0.4,7,1.15,15.48,2.14,22.12
		c0.3,2,0.91,3.96,1.96,5.69c1.86,3.07,4.49,4.48,8.05,4.85c6.07,0.63,12.17-1.47,13.11-15.63c0.07-1.04,0.22-4.43,0.4-6.27
		c0.93-9.33,5.07-26.67,19.27-29.07c15.31-2.59,26.4,13,28.9,33c0.4,3.05,0.78,5.51,1.17,7.51c2.03,10.35,16.83,10.56,19,0.24
		c0.67-3.17,1.19-7.28,2.06-12.79c0.8-5.06,1.77-9.56,4.24-13.72c4.75-7.97,12.76-14.2,23.43-13.24
		c15.95,1.43,14.89,28.64,15.8,37.2c1,9.4,7.41,12.17,13,11.6c5.9-0.6,13.8-4.8,7-38.4c-6.8-33.6-30-35.2-42-33.6
		c-11.23,1.5-22.62,12.01-28.06,22.6c-0.43,0.84-1.62,0.84-2.04-0.01c-3.6-7.33-14.97-25.38-39.5-23.9
		c-4.29,0.26-5.12-0.03-9.2,1.31c-8.08,2.63-15.58,7.65-19,15.8l-0.39,0.83c-0.4,0.85-1.63,0.76-1.9-0.13
		C284.64,273.97,281.14,265.56,274.08,266.15z"/>
	<path class="st1" d="M631.78,185.77c-1.18-6-7.31-7.75-15.08-7.3c-8.44,0.49-21.37,2.63-26.49,3.96c-1.03,0.27-2.05-0.48-2.09-1.54
		l-1.84-21.73c-0.07-1.5-0.75-2.56,0.7-2.95c6.9-1.85,31.18-3.79,33.9-10.35c0.76-1.84,1.06-3.05,0.95-4.62
		c-0.15-2.07-0.8-4.1-2.02-5.79c-2.71-3.75-7.94-6.19-17.07-4.76c-7.96,1.24-13.8,2.01-16.77,3c-1.22,0.41-2.52-0.35-2.79-1.61
		c-2.93-14.04-19.4-83.86-60.71-104.33c-18.4-10-57.6-9.2-69.6,44.8l-0.52,2.88c-0.15,0.82-0.95,1.34-1.75,1.15
		c-5.81-1.38-28.13-5.9-56.07-1.43c-0.68,0.11-1.33-0.33-1.46-1.01c-1.66-8.65-11.8-39.71-41-51.33c-18-6.26-44.4-2.6-57.6,26.94
		c-11.57,25.89-17.68,64.42-18.95,73.04c-0.13,0.88-0.55,2.04-1.38,1.68c-5.14-2.2-21.13-9.61-27.01-9.39
		c-6.47,0.24-11.45,2.17-13.1,9.25c-1.28,5.49,0.72,11.23,5.58,14.09c8.4,4.95,24.28,9.7,28.32,11.6c1.07,0.5,0.69,2.6,0.63,3.27
		l-2.29,23.24c-0.08,0.91-0.69,1.69-1.55,1.99l-0.02,0.01c-6.42,2.28-30.79-5.49-39.17,1.36c-8.04,6.57-1.41,21.25,15.2,22.67
		c15.68,1.34,37.6,8.01,43.67-7.63c0.58-1.49,0.9-3.06,1.07-4.64c2.55-23.36,13.11-138.38,42.14-146.66
		c16.05-5.33,40.85,14.13,48.32,49.33l0.46,1.61c0.34,1.2,1.52,1.97,2.76,1.78c8.68-1.29,42.43-5.44,78.87,1.36
		c1.67,0.31,3.3-0.71,3.71-2.37c3.47-14.14,10.47-41.82,28.07-48.52c18.93-7.2,46.93,22.93,60.53,61.33
		c13.6,38.4,17.33,105.2,16.13,130.4c-1.2,25.2,2.4,71.6-33.2,86.4c-28.64,11.91-53.13,5.12-62.07-10.85
		c-0.3-0.53,0.53-1.04,1.03-0.69c4.02,2.8,17.84,7.54,38.84,0.94c25.02-7.86,22-31.8,22-31.8s2.6-24.8-35.6-28.2
		c-0.72-0.06-1.43-0.05-2.13-0.07c-24.5-0.43-45.26,17.99-48.33,42.3c-0.87,6.84,0.84,16.47,3.07,23.03
		c6.93,20.4,29.2,32.54,54.67,32.53c39.17-0.01,57.94-14.88,67.33-26c1.11-1.31,11.33-11.15,15.2-42c3.29-26.24,3.24-61.29,2.7-78.2
		c-0.04-1.19,0.61-2.01,1.8-2c9.13,0.06,29.94,1.14,36.17-4.47C632.19,195.66,632.98,191.88,631.78,185.77z M468.15,290.35
		c-0.55-2.69,0.28-4.86,1.86-7.29c3.47-5.35,10.15-7.74,16.87-8.91c3.7-0.65,7.26-0.23,10.72,0.15c6.03,0.67,11.59,3.56,15.59,8.12
		l0,0c2.29,2.66,2.92,9.89-3.11,10.82c-8.51,1.31-12.5,1.61-19.2,1.71c-7.87,0.12-2.2,0.42-12.8,0.18
		C474.99,295.06,469.14,295.22,468.15,290.35z"/>
	<ellipse class="st1" cx="427.25" cy="182.4" rx="10.7" ry="9.4"/>
	<path class="st1" d="M469.51,159.61c-0.75,1.09-1.22,2.16-1.36,3.38c-0.52,4.47,0.29,17.04,20.12,26.56
		c26.53,12.73,55.4,1.4,63.34-22.32c0.69-2.08,1.11-4.25,0.98-6.44c-0.38-6.21-4.19-8.02-5.85-8.64c-2.01-0.76-7.8-1.67-11.67,5.4
		c-3.87,7.07-6.73,16.6-22.6,18.33c-14.53,1.59-22.45-8.01-27.5-14.17c-2.71-3.31-5.68-5.67-9.74-5.48
		C473.35,156.32,471.39,156.88,469.51,159.61z"/>
	<path class="st1" d="M299.99,155c-0.85,1.01-1.42,2.03-1.68,3.23c-0.95,4.4-1.36,16.99,17.45,28.39
		c25.17,15.25,55,6.77,65.21-16.07c0.89-2,1.52-4.12,1.6-6.31c0.22-6.22-3.39-8.38-4.99-9.17c-1.93-0.95-7.6-2.42-12.14,4.24
		c-4.53,6.66-8.31,15.87-24.27,16.05c-14.61,0.17-21.57-10.16-26-16.78c-2.37-3.55-5.1-6.19-9.16-6.4
		C304.12,152.09,302.12,152.46,299.99,155z"/>
</g>
</svg>
