<?xml version="1.0" encoding="utf-8"?>
<!-- Generator: Adobe Illustrator 26.3.1, SVG Export Plug-In . SVG Version: 6.00 Build 0)  -->
<svg version="1.1" xmlns="http://www.w3.org/2000/svg" xmlns:xlink="http://www.w3.org/1999/xlink" x="0px" y="0px"
	 viewBox="0 0 33.36 32.76" style="enable-background:new 0 0 33.36 32.76;" xml:space="preserve">
<style type="text/css">
	.st0{display:none;}
	.st1{display:inline;fill:#8854D3;stroke:#8854D3;stroke-width:6;stroke-miterlimit:10;}
	.st2{display:inline;fill:#8854D3;stroke:#8854D3;stroke-miterlimit:10;}
	.st3{display:inline;fill:#8854D3;stroke:#8854D3;stroke-width:13;stroke-miterlimit:10;}
	.st4{fill:#919191;}
</style>
<g id="Camada_2" class="st0">
</g>
<g id="Camada_1" class="st0">
	<path class="st1" d="M-45.49,369.47l-0.62,73.64c0,0.42,0.03,0.84,0.01,1.25c-0.62,10.34-2.16,25.91-22.63,32.84
		c-7.45,2.53-15.4,3.13-23.23,2.32c-16.14-1.67-23.6-7.9-25.59-13.79c-2.39-7.05,3.92-17.83,13.43-14.5
		c1.02,0.36,1.98,0.86,2.87,1.45c6.15,4.1,27.5,10.13,32.92-4.96c0.72-2,1-4.13,1.01-6.25c0.01-3.39-0.1-8.56-0.17-11.56
		c-0.02-0.72-0.93-1-1.36-0.43c-3.12,4.08-12.07,12.76-29.5,8.25c-22.06-5.71-31.71-25.59-25.31-68.8c0.55-3.74,3.13-6.99,6.76-8.05
		c3.61-1.06,7.56-0.01,8.7,4.61c0.19,0.77,0.24,1.58,0.22,2.38c-0.32,10.51-2.57,30.64,1.96,38.53c2.8,5.07,8.53,8.13,13.47,8.27
		c0,0,20.49,2.32,22.8-19.47c2.3-21.66,2.88-34.32,15.33-34.7C-51.09,360.54-45.49,361.87-45.49,369.47z"/>
	<path class="st1" d="M61.59,367.9c0.64,1.9,0.95,3.89,1.06,5.89c0.35,6.62,0.33,25.09-2.41,42.65c-0.9,5.74-2.95,11.29-6.4,15.97
		c-7.59,10.28-19.45,14.73-34.18,13.33c-17.34-1.65-37.53-22.93-32.6-66.4c1.07-8.53,4.26-15.14,11.2-14.2
		c6.4,0.87,6.14,8.15,6.05,10.81c-0.04,0.95-0.06,1.9-0.05,2.85c0.06,7.83-0.13,36.54,13.07,42.27c9.33,2.93,19.47-0.89,21.73-19.93
		c1.95-16.35-2.37-39.55,13.17-40.59c0.98-0.07,1.97-0.01,2.92,0.25C58.44,361.71,60.41,364.39,61.59,367.9z"/>
	<path class="st1" d="M102.64,371.34c0,0-10.51-0.32-7.52,17.66c1.03,6.17,1.63,12.4,1.99,18.64c0.4,7,1.15,15.48,2.14,22.12
		c0.3,2,0.91,3.96,1.96,5.69c1.86,3.07,4.49,4.48,8.05,4.85c6.07,0.63,12.17-1.47,13.11-15.63c0.07-1.04,0.22-4.43,0.4-6.27
		c0.93-9.33,5.07-26.67,19.27-29.07c15.31-2.59,26.4,13,28.9,33c0.4,3.05,0.78,5.51,1.17,7.51c2.03,10.35,16.83,10.56,19,0.24
		c0.67-3.17,1.19-7.28,2.06-12.79c0.8-5.06,1.77-9.56,4.24-13.72c4.75-7.97,12.76-14.2,23.43-13.24
		c15.95,1.43,14.89,28.64,15.8,37.2c1,9.4,7.41,12.17,13,11.6c5.9-0.6,13.8-4.8,7-38.4c-6.8-33.6-30-35.2-42-33.6
		c-11.23,1.5-22.62,12.01-28.06,22.6c-0.43,0.84-1.62,0.84-2.04-0.01c-3.6-7.33-14.97-25.38-39.5-23.9
		c-4.29,0.26-5.12-0.03-9.2,1.31c-8.08,2.63-15.58,7.65-19,15.8l-0.39,0.83c-0.4,0.85-1.63,0.76-1.9-0.13
		C113.2,379.16,109.71,370.75,102.64,371.34z"/>
	<path class="st1" d="M338.58,419.17c-7.07,7.01-30.3,15.25-41.65-3.48c-0.56-0.93,0.06-2.12,1.15-2.11
		c6.01,0.09,22.05-0.52,32.04-2.87c12.5-2.94,18.26-10.61,18.26-10.61s7.72-9.74,0.86-24.69c-6.03-13.14-21.2-17.77-41.05-14.43
		c-28.83,4.85-43.3,31.27-32.11,59.89c2.14,5.48,5.12,9.88,8.37,13.39c8.65,9.34,21.92,12.81,34.65,12.22
		c12.34-0.57,28.06-4.78,34.98-19.48C357.89,418.89,345.87,411.94,338.58,419.17z M294.22,390.13
		c4.72-13.89,19.66-14.09,28.12-11.37c5.31,1.71,9.74,4.87,10.48,11.3c0.24,2.07-0.08,4.99-5.61,5.7
		c-5.88,0.75-0.46,0.25-10.75,1.33c-0.82,0.09-20.54,1.96-21.74,1.96C292.75,399.06,293.67,391.75,294.22,390.13z"/>
	<path class="st2" d="M285.75-131.65c-26.43-34.28-74.7-36.13-104.27-4.51c-11.34,12.13-21.64,29.25-29.38,52.74
		c-0.82,2.48-3.13,4.16-5.73,4.16c-7.2,0.01-18.48-0.12-33.12,1.41c-4.15,0.44-8.03-2.06-9.04-6.11
		c-5.01-20.05-20.12-70.56-70.19-73.3c-58.67-3.2-85.51,38.24-99.73,77.87C-78.25-44.46-101.89,76.57-99.3,113.49
		c0.36,5.19,2.19,10.21,5.49,14.24c3.74,4.57,10.14,9.52,20.63,8.35c24-2.67,21.33-24,24-44.8c2.67-20.8,16-174.93,54.93-190.13
		c34.41-13.43,43.73,15.2,48,36.53c4.27,21.33,8.53,40.53,37.33,40c28.8-0.53,63.47-1.07,63.47-1.07s30.93,1.6,36.8-33.6
		c5.87-35.2,17.07-51.2,42.13-48.53c25.07,2.67,46.93,47.47,54.4,108.27c2.67,23.47,7.47,89.6,3.73,125.33
		c-2.98,28.53-6.67,58.67-32.61,83.04c-10.02,9.41-22.32,17.76-44.45,22.83c-11.37,2.6-57.88,11.68-105.74-7.81
		c-25.38-10.34-41.19-36.25-37.97-63.47c0.08-0.71,0.18-1.42,0.28-2.14c0.47-3.21,3.59-5.34,6.77-4.69
		c21.87,4.48,94.53,18.48,128.38-14.43c37.87-36.8,21.87-101.87-38.4-111.47c-13.33-1.6-86.93-6.4-122.13,54.4
		S7.77,231.88,87.24,268.68c81,37.51,226.24,23.14,247.58-98.43C351.73,73.89,336.95-65.25,285.75-131.65z M90.95,104.35
		c1.6-7.5,14.2-18.2,19.33-21.07c6.97-3.89,18.57-8.84,28.83-8.83c3.04,0,0.64,0.35,6.88,0.5c11.71,0.29,21.08,5.24,22.83,6.26
		c3.4,1.98,6.4,4.38,8.4,8.73c4.53,9.87-1.33,18.67-12,22.67c-6.12,2.3-35.87,9.02-50.67,8.93
		C100.55,121.64,88.01,118.14,90.95,104.35z"/>
</g>
<g id="Camada_3" class="st0">
	<path class="st3" d="M285.75-131.65c-26.43-34.28-74.7-36.13-104.27-4.51c-11.34,12.13-21.64,29.25-29.38,52.74
		c-0.82,2.48-3.13,4.16-5.73,4.16c-7.2,0.01-18.48-0.12-33.12,1.41c-4.15,0.44-8.03-2.06-9.04-6.11
		c-5.01-20.05-20.12-70.56-70.19-73.3c-58.67-3.2-85.51,38.24-99.73,77.87C-78.25-44.46-101.89,76.57-99.3,113.49
		c0.36,5.19,2.19,10.21,5.49,14.24c3.74,4.57,10.14,9.52,20.63,8.35c24-2.67,21.33-24,24-44.8c2.67-20.8,16-174.93,54.93-190.13
		c34.41-13.43,43.73,15.2,48,36.53c4.27,21.33,8.53,40.53,37.33,40c28.8-0.53,63.47-1.07,63.47-1.07s30.93,1.6,36.8-33.6
		c5.87-35.2,17.07-51.2,42.13-48.53c25.07,2.67,46.93,47.47,54.4,108.27c2.67,23.47,7.47,89.6,3.73,125.33
		c-2.98,28.53-6.67,58.67-32.61,83.04c-10.02,9.41-22.32,17.76-44.45,22.83c-11.37,2.6-57.88,11.68-105.74-7.81
		c-25.38-10.34-41.19-36.25-37.97-63.47c0.08-0.71,0.18-1.42,0.28-2.14c0.47-3.21,3.59-5.34,6.77-4.69
		c21.87,4.48,94.53,18.48,128.38-14.43c37.87-36.8,21.87-101.87-38.4-111.47c-13.33-1.6-86.93-6.4-122.13,54.4
		S7.77,231.88,87.24,268.68c81,37.51,226.24,23.14,247.58-98.43C351.73,73.89,336.95-65.25,285.75-131.65z M90.95,104.35
		c1.6-7.5,14.2-18.2,19.33-21.07c6.97-3.89,18.57-8.84,28.83-8.83c3.04,0,0.64,0.35,6.88,0.5c11.71,0.29,21.08,5.24,22.83,6.26
		c3.4,1.98,6.4,4.38,8.4,8.73c4.53,9.87-1.33,18.67-12,22.67c-6.12,2.3-35.87,9.02-50.67,8.93
		C100.55,121.64,88.01,118.14,90.95,104.35z"/>
</g>
<g id="Camada_4">
	<g>
		<path class="st4" d="M6.42,24.73c1.42-1.06,3-1.9,4.75-2.52c1.75-0.61,3.59-0.92,5.5-0.92c1.92,0,3.75,0.31,5.5,0.92
			c1.75,0.61,3.34,1.45,4.75,2.52c0.97-1.12,1.73-2.39,2.27-3.81c0.54-1.42,0.81-2.93,0.81-4.55c0-3.63-1.3-6.72-3.9-9.28
			c-2.6-2.55-5.75-3.83-9.45-3.83S9.84,4.55,7.24,7.1c-2.6,2.55-3.9,5.64-3.9,9.28c0,1.61,0.27,3.13,0.81,4.55
			C4.69,22.34,5.45,23.61,6.42,24.73z M16.68,18.02c-1.64,0-3.02-0.55-4.15-1.66c-1.13-1.11-1.69-2.46-1.69-4.08
			c0-1.61,0.56-2.97,1.69-4.07c1.13-1.11,2.51-1.66,4.15-1.66c1.64,0,3.02,0.55,4.15,1.66c1.13,1.11,1.69,2.46,1.69,4.07
			c0,1.61-0.56,2.97-1.69,4.08C19.71,17.46,18.32,18.02,16.68,18.02z M16.68,32.76c-2.31,0-4.48-0.43-6.51-1.29
			c-2.03-0.86-3.8-2.03-5.3-3.5c-1.5-1.47-2.69-3.21-3.56-5.2C0.44,20.77,0,18.64,0,16.38s0.44-4.39,1.31-6.39
			C2.19,8,3.38,6.26,4.88,4.79c1.5-1.47,3.27-2.64,5.3-3.5C12.21,0.43,14.37,0,16.68,0s4.48,0.43,6.51,1.29
			c2.03,0.86,3.8,2.03,5.3,3.5c1.5,1.47,2.69,3.21,3.56,5.2c0.88,1.99,1.31,4.12,1.31,6.39s-0.44,4.39-1.31,6.39
			c-0.88,1.99-2.06,3.73-3.56,5.2c-1.5,1.47-3.27,2.64-5.3,3.5C21.16,32.33,18.99,32.76,16.68,32.76z M16.68,29.48
			c1.47,0,2.86-0.21,4.17-0.63c1.31-0.42,2.5-1.03,3.59-1.82c-1.08-0.79-2.28-1.4-3.59-1.82c-1.31-0.42-2.7-0.63-4.17-0.63
			c-1.47,0-2.86,0.21-4.17,0.63c-1.31,0.42-2.5,1.03-3.59,1.82c1.08,0.79,2.28,1.4,3.59,1.82C13.82,29.27,15.21,29.48,16.68,29.48z
			 M16.68,14.74c0.72,0,1.32-0.23,1.79-0.7c0.47-0.46,0.71-1.05,0.71-1.76c0-0.71-0.24-1.3-0.71-1.76c-0.47-0.46-1.07-0.7-1.79-0.7
			c-0.72,0-1.32,0.23-1.79,0.7c-0.47,0.46-0.71,1.05-0.71,1.76c0,0.71,0.24,1.3,0.71,1.76C15.36,14.51,15.96,14.74,16.68,14.74z"/>
	</g>
</g>
</svg>
