<svg width="24" height="24" viewBox="0 0 24 24" fill="none" xmlns="http://www.w3.org/2000/svg">
<path d="M15.3452 5.31174L15.4142 16.3174C15.4274 18.4324 13.7251 20.1562 11.6101 20.1695C9.49506 20.1827 7.77128 18.4804 7.75803 16.3654L7.68312 4.40267C7.67915 3.76813 7.92741 3.158 8.37329 2.7065C8.81917 2.255 9.42614 1.99912 10.0607 1.99515C10.6952 1.99118 11.3054 2.23944 11.7568 2.68532C12.2083 3.13119 12.4642 3.73817 12.4682 4.37271L12.5311 14.4214C12.5344 14.9477 12.1065 15.3811 11.5801 15.3844C11.0537 15.3877 10.6204 14.9597 10.6171 14.4334L10.5602 5.34171L9.12464 5.3507L9.18157 14.4423C9.18554 15.0769 9.44142 15.6839 9.89292 16.1297C10.3444 16.5756 10.9545 16.8239 11.5891 16.8199C12.2236 16.8159 12.8306 16.56 13.2765 16.1085C13.7224 15.6571 13.9706 15.0469 13.9666 14.4124L13.9037 4.36372C13.8905 2.24871 12.1667 0.546383 10.0517 0.559627C7.93669 0.572871 6.23436 2.29666 6.2476 4.41166L6.32251 16.3744C6.34073 19.2837 8.70973 21.6232 11.6191 21.605C14.5284 21.5868 16.8679 19.2178 16.8497 16.3084L16.7808 5.30276L15.3452 5.31174Z" fill="#7D7D7D"/>
</svg>
