<svg width="29" height="32" viewBox="0 0 29 32" fill="none" xmlns="http://www.w3.org/2000/svg">
<path d="M8.074 31.6486C7.25846 31.6486 6.56056 31.3463 5.98029 30.7416C5.39904 30.1359 5.10841 29.4081 5.10841 28.5583C5.10841 27.7085 5.39904 26.9807 5.98029 26.375C6.56056 25.7703 7.25846 25.468 8.074 25.468C8.88953 25.468 9.58743 25.7703 10.1677 26.375C10.749 26.9807 11.0396 27.7085 11.0396 28.5583C11.0396 29.4081 10.749 30.1359 10.1677 30.7416C9.58743 31.3463 8.88953 31.6486 8.074 31.6486ZM22.9019 31.6486C22.0864 31.6486 21.3885 31.3463 20.8082 30.7416C20.227 30.1359 19.9363 29.4081 19.9363 28.5583C19.9363 27.7085 20.227 26.9807 20.8082 26.375C21.3885 25.7703 22.0864 25.468 22.9019 25.468C23.7174 25.468 24.4158 25.7703 24.9971 26.375C25.5774 26.9807 25.8675 27.7085 25.8675 28.5583C25.8675 29.4081 25.5774 30.1359 24.9971 30.7416C24.4158 31.3463 23.7174 31.6486 22.9019 31.6486ZM6.81362 6.92621L10.3723 14.652H20.7519L24.8295 6.92621H6.81362ZM5.40497 3.83591H27.2762C27.8446 3.83591 28.277 4.09961 28.5736 4.62702C28.8702 5.15547 28.8825 5.69009 28.6107 6.23089L23.3468 16.1199C23.0749 16.6349 22.7101 17.0341 22.2525 17.3173C21.7958 17.6006 21.2956 17.7423 20.7519 17.7423H9.70507L8.074 20.8326H25.8675V23.9229H8.074C6.9619 23.9229 6.12165 23.414 5.55325 22.3963C4.98485 21.3795 4.96013 20.369 5.47911 19.3647L7.48088 15.5791L2.14283 3.83591H-0.822754V0.745605H3.99632L5.40497 3.83591Z" fill="#8854D3"/>
</svg>
