<?xml version="1.0" encoding="UTF-8"?>
<svg id="Camada_2" data-name="Camada 2" xmlns="http://www.w3.org/2000/svg" viewBox="0 0 875 875">
  <defs>
    <style>
      .cls-1 {
        fill: #8854d3;
      }
    </style>
  </defs>
  <path class="cls-1" d="M212.27,396.53l-.62,73.64c0,.42,.03,.84,0,1.25-.62,10.34-2.16,25.91-22.63,32.84-7.45,2.53-15.4,3.13-23.23,2.32-16.14-1.67-23.6-7.9-25.59-13.79-2.39-7.05,3.92-17.83,13.43-14.5,1.02,.36,1.98,.86,2.87,1.45,6.15,4.1,27.5,10.13,32.92-4.96,.72-2,1-4.13,1.01-6.25,0-3.39-.1-8.56-.17-11.56-.02-.72-.93-1-1.36-.43-3.12,4.08-12.07,12.76-29.5,8.25-22.06-5.71-31.71-25.59-25.31-68.8,.55-3.74,3.13-6.99,6.76-8.05s7.56,0,8.7,4.61c.19,.77,.24,1.58,.22,2.38-.32,10.51-2.57,30.64,1.96,38.53,2.8,5.07,8.53,8.13,13.47,8.27,0,0,20.49,2.32,22.8-19.47,2.3-21.66,2.88-34.32,15.33-34.7,3.33,.04,8.93,1.37,8.93,8.97Z"/>
  <path class="cls-1" d="M322.94,394.96c.64,1.9,.95,3.89,1.06,5.89,.35,6.62,.33,25.09-2.41,42.65-.9,5.74-2.95,11.29-6.4,15.97-7.59,10.28-19.45,14.73-34.18,13.33-17.34-1.65-37.53-22.93-32.6-66.4,1.07-8.53,4.26-15.14,11.2-14.2,6.4,.87,6.14,8.15,6.05,10.81-.04,.95-.06,1.9-.05,2.85,.06,7.83-.13,36.54,13.07,42.27,9.33,2.93,19.47-.89,21.73-19.93,1.95-16.35-2.37-39.55,13.17-40.59,.98-.07,1.97-.01,2.92,.25,3.3,.92,5.27,3.59,6.45,7.11Z"/>
  <path class="cls-1" d="M369.2,398.4s-10.51-.32-7.52,17.66c1.03,6.17,1.63,12.4,1.99,18.64,.4,7,1.15,15.48,2.14,22.12,.3,2,.91,3.96,1.96,5.69,1.86,3.07,4.49,4.48,8.05,4.85,6.07,.63,12.17-1.47,13.11-15.63,.07-1.04,.22-4.43,.4-6.27,.93-9.33,5.07-26.67,19.27-29.07,15.31-2.59,26.4,13,28.9,33,.4,3.05,.78,5.51,1.17,7.51,2.03,10.35,16.83,10.56,19,.24,.67-3.17,1.19-7.28,2.06-12.79,.8-5.06,1.77-9.56,4.24-13.72,4.75-7.97,12.76-14.2,23.43-13.24,15.95,1.43,14.89,28.64,15.8,37.2,1,9.4,7.41,12.17,13,11.6,5.9-.6,13.8-4.8,7-38.4s-30-35.2-42-33.6c-11.23,1.5-22.62,12.01-28.06,22.6-.43,.84-1.62,.84-2.04,0-3.6-7.33-14.97-25.38-39.5-23.9-4.29,.26-5.12-.03-9.2,1.31-8.08,2.63-15.58,7.65-19,15.8l-.39,.83c-.4,.85-1.63,.76-1.9-.13-1.35-4.48-4.84-12.89-11.91-12.3Z"/>
  <path class="cls-1" d="M726.91,318.02c-1.18-6-7.31-7.75-15.08-7.3-8.44,.49-21.37,2.63-26.49,3.96-1.03,.27-2.05-.48-2.09-1.54l-1.84-21.73c-.07-1.5-.75-2.56,.7-2.95,6.9-1.85,31.18-3.79,33.9-10.35,.76-1.84,1.06-3.05,.95-4.62-.15-2.07-.8-4.1-2.02-5.79-2.71-3.75-7.94-6.19-17.07-4.76-7.96,1.24-13.8,2.01-16.77,3-1.22,.41-2.52-.35-2.79-1.61-2.93-14.04-19.4-83.86-60.71-104.33-18.4-10-57.6-9.2-69.6,44.8l-.52,2.88c-.15,.82-.95,1.34-1.75,1.15-5.81-1.38-28.13-5.9-56.07-1.43-.68,.11-1.33-.33-1.46-1.01-1.66-8.65-11.8-39.71-41-51.33-18-6.26-44.4-2.6-57.6,26.94-11.57,25.89-17.68,64.42-18.95,73.04-.13,.88-.55,2.04-1.38,1.68-5.14-2.2-21.13-9.61-27.01-9.39-6.47,.24-11.45,2.17-13.1,9.25-1.28,5.49,.72,11.23,5.58,14.09,8.4,4.95,24.28,9.7,28.32,11.6,1.07,.5,.69,2.6,.63,3.27l-2.29,23.24c-.08,.91-.69,1.69-1.55,1.99h-.02c-6.42,2.28-30.79-5.48-39.17,1.37-8.04,6.57-1.41,21.25,15.2,22.67,15.68,1.34,37.6,8.01,43.67-7.63,.58-1.49,.9-3.06,1.07-4.64,2.55-23.36,13.11-138.38,42.14-146.66,16.05-5.33,40.85,14.13,48.32,49.33l.46,1.61c.34,1.2,1.52,1.97,2.76,1.78,8.68-1.29,42.43-5.44,78.87,1.36,1.67,.31,3.3-.71,3.71-2.37,3.47-14.14,10.47-41.82,28.07-48.52,18.93-7.2,46.93,22.93,60.53,61.33,13.6,38.4,17.33,105.2,16.13,130.4-1.2,25.2,2.4,71.6-33.2,86.4-28.64,11.91-53.13,5.12-62.07-10.85-.3-.53,.53-1.04,1.03-.69,4.02,2.8,17.84,7.54,38.84,.94,25.02-7.86,22-31.8,22-31.8,0,0,2.6-24.8-35.6-28.2-.72-.06-1.43-.05-2.13-.07-24.5-.43-45.26,17.99-48.33,42.3-.87,6.84,.84,16.47,3.07,23.03,6.93,20.4,29.2,32.54,54.67,32.53,39.17,0,57.94-14.88,67.33-26,1.11-1.31,11.33-11.15,15.2-42,3.29-26.24,3.24-61.29,2.7-78.2-.04-1.19,.61-2.01,1.8-2,9.13,.06,29.94,1.14,36.17-4.47,4.24-3.82,5.04-7.6,3.84-13.71Zm-163.63,104.58c-.55-2.69,.28-4.86,1.86-7.29,3.47-5.35,10.15-7.74,16.87-8.91,3.7-.65,7.26-.23,10.72,.15,6.03,.67,11.59,3.56,15.59,8.12h0c2.29,2.66,2.92,9.89-3.11,10.82-8.51,1.31-12.5,1.61-19.2,1.71-7.87,.12-2.2,.42-12.8,.18-3.09-.07-8.93,.09-9.93-4.78Z"/>
  <ellipse class="cls-1" cx="522.38" cy="314.65" rx="10.7" ry="9.4"/>
  <path class="cls-1" d="M564.64,291.86c-.75,1.09-1.22,2.16-1.36,3.38-.52,4.47,.29,17.04,20.12,26.56,26.53,12.73,55.4,1.4,63.34-22.32,.69-2.08,1.11-4.25,.98-6.44-.38-6.21-4.19-8.02-5.85-8.64-2.01-.76-7.8-1.67-11.67,5.4s-6.73,16.6-22.6,18.33c-14.53,1.59-22.45-8.01-27.5-14.17-2.71-3.31-5.68-5.67-9.74-5.48-1.89,.09-3.85,.65-5.72,3.38Z"/>
  <path class="cls-1" d="M395.11,287.25c-.85,1.01-1.42,2.03-1.68,3.23-.95,4.4-1.36,16.99,17.45,28.39,25.17,15.25,55,6.77,65.21-16.07,.89-2,1.52-4.12,1.6-6.31,.22-6.22-3.39-8.38-4.99-9.17-1.93-.95-7.6-2.42-12.14,4.24s-8.31,15.87-24.27,16.05c-14.61,.17-21.57-10.16-26-16.78-2.37-3.55-5.1-6.19-9.16-6.4-1.89-.1-3.89,.28-6.02,2.81Z"/>
</svg>